<?xml version="1.0" encoding="UTF-8" standalone="no"?>
<!-- Created with Inkscape (http://www.inkscape.org/) -->

<svg
   xmlns:sketch="http://www.bohemiancoding.com/sketch/ns"
   xmlns:dc="http://purl.org/dc/elements/1.1/"
   xmlns:cc="http://creativecommons.org/ns#"
   xmlns:rdf="http://www.w3.org/1999/02/22-rdf-syntax-ns#"
   xmlns:svg="http://www.w3.org/2000/svg"
   xmlns="http://www.w3.org/2000/svg"
   xmlns:sodipodi="http://sodipodi.sourceforge.net/DTD/sodipodi-0.dtd"
   xmlns:inkscape="http://www.inkscape.org/namespaces/inkscape"
   width="100"
   height="30"
   viewBox="0 0 26.458333 7.9375002"
   version="1.1"
   id="svg8"
   inkscape:version="0.92.4 (fd57863, 2020-04-02)"
   sodipodi:docname="drawing.svg">
  <defs
     id="defs2">
    <linearGradient
       id="linearGradient-1"
       y2="-225.18146"
       x2="234.05257"
       y1="-225.18146"
       x1="0.0004414217"
       gradientTransform="scale(1.5857848,0.63060258)"
       gradientUnits="userSpaceOnUse">
      <stop
         id="stop4642"
         offset="0%"
         stop-color="#593D09" />
      <stop
         id="stop4644"
         offset="100%"
         stop-color="#7F5200" />
    </linearGradient>
    <linearGradient
       id="linearGradient-2"
       y2="-166.50815"
       x2="316.88971"
       y1="-166.50815"
       x1="143.82236"
       gradientTransform="scale(1.1725927,0.85281107)"
       gradientUnits="userSpaceOnUse">
      <stop
         id="stop4647"
         offset="0%"
         stop-color="#563B09" />
      <stop
         id="stop4649"
         offset="100%"
         stop-color="#291D04" />
    </linearGradient>
  </defs>
  <sodipodi:namedview
     id="base"
     pagecolor="#ffffff"
     bordercolor="#666666"
     borderopacity="1.0"
     inkscape:pageopacity="0.0"
     inkscape:pageshadow="2"
     inkscape:zoom="0.98994949"
     inkscape:cx="-111.42857"
     inkscape:cy="142.0738"
     inkscape:document-units="mm"
     inkscape:current-layer="layer1"
     showgrid="false"
     units="px"
     inkscape:window-width="1280"
     inkscape:window-height="975"
     inkscape:window-x="0"
     inkscape:window-y="25"
     inkscape:window-maximized="1" />
  <metadata
     id="metadata5">
    <rdf:RDF>
      <cc:Work
         rdf:about="">
        <dc:format>image/svg+xml</dc:format>
        <dc:type
           rdf:resource="http://purl.org/dc/dcmitype/StillImage" />
        <dc:title></dc:title>
      </cc:Work>
    </rdf:RDF>
  </metadata>
  <g
     inkscape:label="Layer 1"
     inkscape:groupmode="layer"
     id="layer1"
     transform="translate(0,-289.06248)">
    <g
       sketch:type="MSPage"
       id="Page-1"
       transform="matrix(0.06583267,0,0,0.05466516,0.80281122,289.79396)"
       style="fill:none;fill-rule:evenodd;stroke:none;stroke-width:1">
      <g
         transform="translate(-0.00329,0.1579)"
         sketch:type="MSLayerGroup"
         id="dirt">
        <path
           sketch:type="MSShapeGroup"
           id="Shape"
           d="m 273.22204,0.12979 c -4.04683,0 -7.74726,1.27237 -10.625,3.40625 -2.33336,-1.11106 -5.00896,-1.75 -7.84375,-1.75 -9.15283,0 -16.5625,6.58145 -16.5625,14.6875 0,1.58843 0.28547,3.12984 0.8125,4.5625 -2.58211,2.58811 -4.15625,5.96229 -4.15625,9.6875 0,1.25987 0.19413,2.48944 0.53125,3.65625 -1.48403,0.42672 -2.8576,1.02293 -4.125,1.78125 -2.4716,1.13069 -4.60458,2.75404 -6.15625,4.78125 -0.003,10e-4 0.003,0.03 0,0.0312 -1.54518,0.57907 -3.00061,1.22081 -4.375,1.9375 -2.61841,-6.06157 -7.61591,-10.45923 -13.5625,-11.5 -3.07952,-2.77888 -6.90652,-4.4375 -11.09375,-4.4375 -3.95784,0 -7.63485,1.46024 -10.625,3.96875 -2.77159,-1.98968 -6.01159,-3.15625 -9.5,-3.15625 -9.50318,0 -17.29495,8.53327 -18.15625,19.40625 -1.68777,-0.60376 -3.48739,-0.9375 -5.34375,-0.9375 -5.60453,0 -10.62099,2.96561 -13.96875,7.625 -0.9241,-0.0458 -1.86934,-0.0937 -2.8125,-0.0937 -2.94047,0 -5.7741,0.22965 -8.5,0.65625 -3.15352,-6.40165 -9.0516,-10.71875 -15.8125,-10.71875 -7.67088,0 -14.2379,5.54914 -16.9375,13.40625 -2.86982,-7.4025 -9.20355,-12.5625 -16.59375,-12.5625 -5.57477,0 -10.55869,2.94582 -13.90625,7.5625 -2.17664,-1.07433 -4.55243,-1.6875 -7.0625,-1.6875 -7.53781,0 -14.02874,5.35895 -16.8125,13 -2.7026,-1.85391 -5.82982,-2.9375 -9.1875,-2.9375 -6.77313,0 -12.6945,4.32919 -15.84375,10.75 -1.3128,-0.67385 -2.78754,-1.0625 -4.3125,-1.0625 -5.90852,0 -10.6875,5.60716 -10.6875,12.53125 0,6.92409 4.77898,12.53125 10.6875,12.53125 1.79334,0 3.51543,-0.49235 5,-1.40625 0.0635,0.11019 0.15353,0.20378 0.21875,0.3125 1.40015,4.0233 4.5337,6.99262 8.3125,7.65625 2.05131,0.93549 4.29136,1.46875 6.625,1.46875 3.28048,0 6.33974,-1.0369 9,-2.8125 1.28832,5.22877 5.40451,9.0625 10.28125,9.0625 0.78267,0 1.5467,-0.0945 2.28125,-0.28125 2.31475,1.11904 4.88585,1.75 7.59375,1.75 2.29226,0 4.47629,-0.46536 6.5,-1.28125 1.88657,1.96495 4.36837,3.15625 7.09375,3.15625 3.39571,0 6.41518,-1.85868 8.375,-4.75 4.40259,7.92113 16.10892,13.73804 30.15625,14.375 1.84517,3.76812 5.30812,6.3125 9.28125,6.3125 3.56231,0 6.7118,-2.04961 8.65625,-5.1875 1.01178,1.07761 2.14711,2.11474 3.4375,3.0625 0.82912,5.95698 5.24483,10.5 10.5625,10.5 2.89527,0 5.51142,-1.34186 7.4375,-3.53125 l 0.28125,0.0312 c 1.61107,4.5337 5.4227,7.71875 9.875,7.71875 1.27856,0 2.51965,-0.26791 3.65625,-0.75 6.33358,4.34151 15.51562,7.0625 25.71875,7.0625 13.52672,0 25.21507,-4.78997 30.90625,-11.78125 0.77591,-0.033 1.5515,-0.0922 2.3125,-0.15625 2.13973,0.91781 4.50947,1.46875 7.03125,1.46875 6.91329,0 12.8271,-3.86395 15.3125,-9.34375 0.41488,-0.32129 0.80258,-0.63275 1.1875,-0.96875 0.90662,0.13994 1.8309,0.25 2.78125,0.25 1.43544,0 2.82799,-0.1875 4.15625,-0.5 1.84517,3.76812 5.30812,6.3125 9.28125,6.3125 4.31678,0 8.02793,-2.99792 9.71875,-7.3125 0.92571,0.14206 1.87218,0.21875 2.84375,0.21875 3.16177,0 6.11125,-0.79556 8.625,-2.15625 1.91303,2.10086 4.48389,3.375 7.3125,3.375 4.54044,0 8.41549,-3.32292 9.96875,-8 0.44648,0.0466 0.88797,0.0937 1.34375,0.0937 1.12321,0 2.22074,-0.16266 3.28125,-0.4375 1.7821,1.55564 3.982,2.46875 6.375,2.46875 4.41026,0 8.20677,-3.1282 9.84375,-7.59375 2.51093,1.3951 5.4687,2.1875 8.625,2.1875 6.44092,0 12.0072,-3.32982 14.75,-8.21875 1.91652,0.70539 4.02475,1.09375 6.21875,1.09375 9.15283,0 16.5625,-6.7561 16.5625,-15.09375 0,-0.98763 -0.11373,-1.94028 -0.3125,-2.875 1.27564,-2.13909 2,-4.58198 2,-7.1875 0,-4.86659 -2.54387,-9.17673 -6.46875,-11.9375 0.38109,-1.27054 0.59375,-2.61936 0.59375,-4 0,-8.33765 -7.44092,-15.09375 -16.59375,-15.09375 -0.80964,0 -1.59642,0.0853 -2.375,0.1875 0.31963,-1.1381 0.5,-2.30555 0.5,-3.53125 0,-8.10605 -7.40967,-14.6875 -16.5625,-14.6875 -0.26461,0 -0.51967,0.0204 -0.78125,0.0312 -1.84827,-3.75426 -5.31696,-6.28125 -9.28125,-6.28125 -1.54887,0 -3.01476,0.3998 -4.34375,1.09375 -4.10258,-7.02982 -13.99936,-12.33945 -26.125,-13.75 0.0168,-0.27095 0.0625,-0.53783 0.0625,-0.8125 0,-8.10605 -7.40967,-14.65625 -16.5625,-14.65625 z m 41.71875,54.6875 c 0.61799,1.31784 1.46677,2.53406 2.46875,3.625 -0.91983,-0.1218 -1.86714,-0.20563 -2.8125,-0.28125 0.24469,-1.00338 0.34375,-2.02554 0.34375,-3.09375 0,-0.0843 0.002,-0.16605 0,-0.25 z m -36.5625,2.96875 c 1.22782,0.10758 2.48424,0.16176 3.75,0.1875 0.16029,0.70128 0.41869,1.37012 0.6875,2.03125 -1.42946,-0.69232 -2.96509,-1.29531 -4.5625,-1.84375 0.0394,-0.12481 0.0892,-0.24887 0.125,-0.375 z"
           inkscape:connector-curvature="0"
           style="fill:url(#linearGradient-1)" />
        <path
           sketch:type="MSShapeGroup"
           id="path4655"
           d="m 273.64503,0.22809 c -4.04683,0 -7.74726,1.27237 -10.625,3.40625 -2.33336,-1.11106 -5.00896,-1.75 -7.84375,-1.75 -1.39619,0 -2.7363,0.18041 -4.03125,0.46875 2.92477,2.22754 5.68412,4.55634 8.21875,6.9375 11.29942,1.24587 20.0625,10.25875 20.0625,21.21875 0,2.38913 -0.41888,4.69834 -1.1875,6.84375 1.64489,5.01036 2.53125,10.16503 2.53125,15.4375 0,0.02 3e-5,0.0415 0,0.0625 4.4507,3.9039 7.21875,9.4502 7.21875,15.625 0,11.7049 -10.00203,21.2352 -22.40625,21.4063 -0.37775,0.4358 -0.76566,0.8806 -1.15625,1.3124 0.96783,2.1442 1.5,4.4562 1.5,6.8438 0,11.8117 -12.8199,21.375 -28.65625,21.375 -1.40899,0 -2.80167,-0.0723 -4.15625,-0.2188 -2.43042,10.3421 -16.8423,18.2813 -34.25,18.2813 -6.07645,0 -11.7868,-0.9562 -16.75,-2.6563 -3.30934,3.8056 -8.04331,6.5863 -13.46875,7.7188 6.09457,3.3056 14.06631,5.2812 22.8125,5.2812 13.52672,0 25.21507,-4.79 30.90625,-11.7812 0.77591,-0.033 1.5515,-0.0919 2.3125,-0.1562 2.13973,0.9177 4.50947,1.4687 7.03125,1.4687 6.91329,0 12.8271,-3.8639 15.3125,-9.3437 0.41488,-0.3214 0.80258,-0.6328 1.1875,-0.9688 0.90662,0.1399 1.8309,0.25 2.78125,0.25 1.43544,0 2.82799,-0.1875 4.15625,-0.5 1.84517,3.7681 5.30812,6.3125 9.28125,6.3125 4.31678,0 8.02793,-2.998 9.71875,-7.3125 0.92571,0.142 1.87218,0.2188 2.84375,0.2188 3.16177,0 6.11125,-0.7956 8.625,-2.1563 1.91303,2.1008 4.48389,3.375 7.3125,3.375 4.54044,0 8.41549,-3.323 9.96875,-8 0.44648,0.047 0.88797,0.0937 1.34375,0.0937 1.12321,0 2.22074,-0.1626 3.28125,-0.4374 1.7821,1.5555 3.982,2.4687 6.375,2.4687 4.41026,0 8.20677,-3.1283 9.84375,-7.5937 2.51093,1.395 5.4687,2.1874 8.625,2.1874 6.44092,0 12.0072,-3.3298 14.75,-8.2187 1.91652,0.7054 4.02475,1.0937 6.21875,1.0937 9.15283,0 16.5625,-6.756 16.5625,-15.0937 0,-0.9876 -0.11373,-1.9403 -0.3125,-2.875 1.27564,-2.1391 2,-4.582 2,-7.1875 0,-4.8666 -2.54387,-9.1767 -6.46875,-11.9375 0.38109,-1.2705 0.59375,-2.6193 0.59375,-4 0,-8.3376 -7.44092,-15.0938 -16.59375,-15.0937 -0.80964,0 -1.59642,0.085 -2.375,0.1874 0.31963,-1.1381 0.5,-2.3055 0.5,-3.5312 0,-8.10604 -7.40967,-14.6875 -16.5625,-14.6875 -0.26461,0 -0.51967,0.0205 -0.78125,0.0312 -1.84827,-3.75426 -5.31696,-6.28125 -9.28125,-6.28125 -1.54887,0 -3.01476,0.3998 -4.34375,1.09375 -4.10258,-7.02982 -13.99936,-12.33945 -26.125,-13.75 0.0168,-0.27095 0.0625,-0.53783 0.0625,-0.8125 0,-8.10605 -7.40967,-14.65625 -16.5625,-14.65625 z m 41.71875,54.6875 c 0.61799,1.3179 1.46677,2.5341 2.46875,3.625 -0.91983,-0.1218 -1.86714,-0.2057 -2.8125,-0.2812 0.24469,-1.0035 0.34375,-2.0256 0.34375,-3.0938 0,-0.084 0.002,-0.166 0,-0.25 z"
           inkscape:connector-curvature="0"
           style="fill:url(#linearGradient-2)" />
        <path
           sketch:type="MSShapeGroup"
           id="path4657"
           d="m 161.4201,114.54007 c 1.45114,0 2.80543,0.42148 3.95424,1.13296 h 0.1 c 4.02444,0 7.31826,3.15658 7.51972,7.13096 0.007,0.1282 0,0.25894 0,0.38876 0,1.08895 -0.23968,2.12051 -0.65534,3.05454 0.8016,1.19592 1.26625,2.62738 1.26625,4.17638 0,0.12982 0.007,0.26056 0,0.38876 -0.20146,3.97438 -3.49528,7.13096 -7.51972,7.13096 -0.39763,0 -0.78518,-0.0298 -1.16628,-0.0889 -1.18022,0.77023 -2.59473,1.22182 -4.10974,1.22182 -1.46736,0 -2.84111,-0.41758 -3.99867,-1.14406 -0.14723,0.009 -0.2948,0.0111 -0.4443,0.0111 -4.15426,0 -7.53083,-3.36546 -7.53083,-7.51972 0,-1.09424 0.24469,-2.12976 0.66645,-3.06565 -0.80373,-1.19301 -1.27735,-2.61757 -1.27735,-4.16528 0,-4.15426 3.37657,-7.51972 7.53082,-7.51972 0.50712,0 0.9993,0.0494 1.47729,0.1444 1.19854,-0.80636 2.63447,-1.27736 4.18749,-1.27736 z"
           inkscape:connector-curvature="0"
           style="fill:#734b02;stroke:#000000;stroke-width:1.06631005" />
        <path
           sketch:type="MSShapeGroup"
           id="path4659"
           d="m 163.31979,116.94121 c 1.45113,0 2.80542,0.42148 3.95424,1.13296 h 0.1 c 4.02444,0 7.31826,3.15658 7.51972,7.13096 0.007,0.1282 0,0.25894 0,0.38876 0,1.08895 -0.23968,2.12051 -0.65534,3.05453 0.8016,1.19593 1.26625,2.62739 1.26625,4.17639 0,0.12982 0.007,0.26056 0,0.38876 -0.20146,3.97438 -3.49528,7.13096 -7.51972,7.13096 -0.39763,0 -0.78518,-0.0299 -1.16628,-0.0889 -1.18022,0.77023 -2.59473,1.22182 -4.10974,1.22182 -1.46736,0 -2.84111,-0.41758 -3.99867,-1.14407 -0.14723,0.009 -0.2948,0.0111 -0.4443,0.0111 -4.15426,0 -7.53082,-3.36545 -7.53082,-7.51972 0,-1.09423 0.24468,-2.12975 0.66644,-3.06564 -0.80373,-1.19301 -1.27735,-2.61757 -1.27735,-4.16528 0,-4.15426 3.37657,-7.51972 7.53082,-7.51972 0.50712,0 0.9993,0.0494 1.47729,0.14439 1.19854,-0.80635 2.63447,-1.27735 4.1875,-1.27735 z"
           inkscape:connector-curvature="0"
           style="fill:#3b2906" />
        <path
           sketch:type="MSShapeGroup"
           id="path4661"
           d="m 244.52054,113.99717 c 1.45114,0 2.80543,0.42148 3.95424,1.13296 h 0.1 c 4.02444,0 7.31826,3.15658 7.51972,7.13096 0.007,0.1282 0,0.25894 0,0.38876 0,1.08895 -0.23968,2.12051 -0.65534,3.05454 0.8016,1.19592 1.26625,2.62738 1.26625,4.17638 0,0.12982 0.007,0.26056 0,0.38876 -0.20146,3.97438 -3.49528,7.13096 -7.51972,7.13096 -0.39763,0 -0.78518,-0.0298 -1.16628,-0.0889 -1.18022,0.77023 -2.59473,1.22182 -4.10974,1.22182 -1.46736,0 -2.84111,-0.41758 -3.99867,-1.14406 -0.14723,0.009 -0.2948,0.0111 -0.4443,0.0111 -4.15426,0 -7.53083,-3.36546 -7.53083,-7.51972 0,-1.09424 0.24469,-2.12976 0.66645,-3.06565 -0.80373,-1.19301 -1.27735,-2.61757 -1.27735,-4.16528 0,-4.15426 3.37657,-7.51972 7.53082,-7.51972 0.50712,0 0.9993,0.0494 1.47729,0.1444 1.19854,-0.80636 2.63447,-1.27736 4.18749,-1.27736 z"
           inkscape:connector-curvature="0"
           style="fill:#734b02;stroke:#000000;stroke-width:1.06631005" />
        <path
           sketch:type="MSShapeGroup"
           id="path4663"
           d="m 246.42023,116.39831 c 1.45113,0 2.80542,0.42148 3.95424,1.13296 h 0.1 c 4.02444,0 7.31826,3.15658 7.51972,7.13096 0.007,0.1282 0,0.25894 0,0.38876 0,1.08895 -0.23968,2.12051 -0.65534,3.05453 0.8016,1.19593 1.26625,2.62739 1.26625,4.17639 0,0.12982 0.007,0.26056 0,0.38876 -0.20146,3.97438 -3.49528,7.13096 -7.51972,7.13096 -0.39763,0 -0.78518,-0.0299 -1.16628,-0.0889 -1.18022,0.77023 -2.59473,1.22182 -4.10974,1.22182 -1.46736,0 -2.84111,-0.41758 -3.99867,-1.14407 -0.14723,0.009 -0.2948,0.0111 -0.4443,0.0111 -4.15426,0 -7.53082,-3.36545 -7.53082,-7.51972 0,-1.09423 0.24468,-2.12975 0.66644,-3.06564 -0.80373,-1.19301 -1.27735,-2.61757 -1.27735,-4.16528 0,-4.15426 3.37657,-7.51972 7.53082,-7.51972 0.50712,0 0.9993,0.0494 1.47729,0.14439 1.19854,-0.80635 2.63447,-1.27735 4.1875,-1.27735 z"
           inkscape:connector-curvature="0"
           style="fill:#3b2906" />
        <path
           sketch:type="MSShapeGroup"
           id="path4665"
           d="m 353.45451,67.41239 c 2.23872,0 4.32802,0.65023 6.10032,1.74785 h 0.15427 c 6.20861,0 11.29008,4.86974 11.60088,11.00113 0.0108,0.19778 0,0.39947 0,0.59975 0,1.67995 -0.36976,3.27137 -1.01101,4.71232 1.23665,1.84498 1.95348,4.05333 1.95348,6.44302 0,0.20027 0.0108,0.40197 0,0.59975 -0.3108,6.13138 -5.39227,11.00112 -11.60088,11.00112 -0.61344,0 -1.21132,-0.046 -1.79925,-0.13714 -1.82076,1.18825 -4.00296,1.88493 -6.34021,1.88493 -2.26374,0 -4.38306,-0.64421 -6.16886,-1.76497 -0.22714,0.0139 -0.4548,0.0171 -0.68543,0.0171 -6.40889,0 -11.61802,-5.19198 -11.61802,-11.60087 0,-1.68812 0.37749,-3.28564 1.02815,-4.72947 -1.23994,-1.84049 -1.9706,-4.03819 -1.9706,-6.42589 0,-6.40889 5.20912,-11.60088 11.618,-11.60088 0.78235,0 1.54165,0.0762 2.27905,0.22277 1.84903,-1.24399 4.06427,-1.97061 6.46016,-1.97061 z"
           inkscape:connector-curvature="0"
           style="fill:#734b02;stroke:#000000;stroke-width:1.64503002" />
        <path
           sketch:type="MSShapeGroup"
           id="path4667"
           d="m 356.38522,71.1167 c 2.2387,0 4.328,0.65023 6.10031,1.74785 h 0.15427 c 6.20862,0 11.29008,4.86974 11.60088,11.00112 0.0108,0.19778 0,0.39948 0,0.59975 0,1.67996 -0.36976,3.27137 -1.01101,4.71231 1.23665,1.84499 1.95348,4.05335 1.95348,6.44303 0,0.20028 0.0108,0.40197 0,0.59975 -0.3108,6.13139 -5.39226,11.00113 -11.60088,11.00113 -0.61343,0 -1.21132,-0.0461 -1.79925,-0.13715 -1.82076,1.18826 -4.00296,1.88494 -6.34021,1.88494 -2.26373,0 -4.38306,-0.64422 -6.16886,-1.76499 -0.22713,0.0139 -0.45479,0.0171 -0.68543,0.0171 -6.40889,0 -11.618,-5.19197 -11.618,-11.60088 0,-1.68809 0.37747,-3.28562 1.02813,-4.72944 -1.23993,-1.84049 -1.9706,-4.0382 -1.9706,-6.42589 0,-6.40889 5.20913,-11.60088 11.618,-11.60088 0.78235,0 1.54165,0.0762 2.27906,0.22275 1.84902,-1.24397 4.06427,-1.9706 6.46017,-1.9706 z"
           inkscape:connector-curvature="0"
           style="fill:#3b2906" />
        <path
           sketch:type="MSShapeGroup"
           id="path4669"
           d="m 303.21273,46.93836 c 1.53876,0 2.97482,0.44693 4.193,1.20137 h 0.10604 c 4.26743,0 7.76014,3.34717 7.97376,7.56153 0.007,0.13595 0,0.27458 0,0.41224 0,1.1547 -0.25415,2.24855 -0.6949,3.23897 0.85,1.26813 1.3427,2.78603 1.3427,4.42856 0,0.13765 0.007,0.27629 0,0.41223 -0.21362,4.21436 -3.70633,7.56153 -7.97377,7.56153 -0.42164,0 -0.83259,-0.0316 -1.23669,-0.0943 -1.25149,0.81673 -2.75141,1.29559 -4.3579,1.29559 -1.55596,0 -3.01266,-0.44279 -4.24011,-1.21314 -0.15612,0.01 -0.3126,0.0118 -0.47113,0.0118 -4.40509,0 -7.98554,-3.56867 -7.98554,-7.97377 0,-1.16031 0.25946,-2.25835 0.70669,-3.25076 -0.85227,-1.26504 -1.35448,-2.77561 -1.35448,-4.41678 0,-4.4051 3.58045,-7.97377 7.98554,-7.97377 0.53774,0 1.05964,0.0524 1.56648,0.15312 1.27092,-0.85505 2.79354,-1.35448 4.44034,-1.35448 z"
           inkscape:connector-curvature="0"
           style="fill:#734b02;stroke:#000000;stroke-width:1.13069999" />
        <path
           sketch:type="MSShapeGroup"
           id="path4671"
           d="m 306.90452,51.1619 c 1.53876,0 2.97482,0.44693 4.193,1.20137 h 0.10604 c 4.26744,0 7.76014,3.34717 7.97377,7.56152 0.007,0.13595 0,0.27458 0,0.41224 0,1.1547 -0.25415,2.24855 -0.69491,3.23897 0.85,1.26813 1.34271,2.78603 1.34271,4.42856 0,0.13766 0.007,0.27629 0,0.41223 -0.21363,4.21436 -3.70633,7.56154 -7.97377,7.56154 -0.42164,0 -0.83259,-0.0317 -1.2367,-0.0943 -1.25149,0.81674 -2.7514,1.2956 -4.35789,1.2956 -1.55596,0 -3.01266,-0.4428 -4.24012,-1.21315 -0.15611,0.01 -0.31259,0.0118 -0.47112,0.0118 -4.4051,0 -7.98554,-3.56866 -7.98554,-7.97377 0,-1.16029 0.25945,-2.25834 0.70668,-3.25074 -0.85226,-1.26505 -1.35448,-2.77562 -1.35448,-4.41678 0,-4.4051 3.58045,-7.97377 7.98554,-7.97377 0.53774,0 1.05964,0.0524 1.56649,0.1531 1.27091,-0.85503 2.79354,-1.35447 4.44035,-1.35447 z"
           inkscape:connector-curvature="0"
           style="opacity:0.80249999;fill:#3b2906" />
        <path
           sketch:type="MSShapeGroup"
           id="path4673"
           d="m 31.48996,80.44905 c 1.45114,0 2.80543,0.42148 3.95424,1.13296 h 0.1 c 4.02444,0 7.31826,3.15658 7.51972,7.13096 0.007,0.1282 0,0.25894 0,0.38876 0,1.08895 -0.23968,2.12051 -0.65534,3.05454 0.8016,1.19592 1.26625,2.62738 1.26625,4.17638 0,0.12982 0.007,0.26056 0,0.38876 -0.20146,3.97438 -3.49528,7.13096 -7.51972,7.13096 -0.39763,0 -0.78518,-0.0298 -1.16628,-0.0889 -1.18022,0.77023 -2.59473,1.22182 -4.10974,1.22182 -1.46736,0 -2.84111,-0.41758 -3.99867,-1.14406 -0.14723,0.009 -0.2948,0.0111 -0.4443,0.0111 -4.15426,0 -7.53083,-3.36546 -7.53083,-7.51972 0,-1.09424 0.24469,-2.12976 0.66645,-3.06565 -0.80373,-1.19301 -1.27735,-2.61757 -1.27735,-4.16528 0,-4.15426 3.37657,-7.51972 7.53082,-7.51972 0.50712,0 0.9993,0.0494 1.47729,0.1444 C 28.50104,80.92 29.93697,80.449 31.48999,80.449 Z"
           inkscape:connector-curvature="0"
           style="fill:#734b02;stroke:#000000;stroke-width:1.06631005" />
        <path
           sketch:type="MSShapeGroup"
           id="path4675"
           d="m 33.38965,82.85019 c 1.45113,0 2.80542,0.42148 3.95424,1.13296 h 0.1 c 4.02444,0 7.31826,3.15658 7.51972,7.13096 0.007,0.1282 0,0.25894 0,0.38876 0,1.08895 -0.23968,2.12051 -0.65534,3.05453 0.8016,1.19593 1.26625,2.62739 1.26625,4.17639 0,0.12982 0.007,0.26056 0,0.38876 -0.20146,3.97438 -3.49528,7.13096 -7.51972,7.13096 -0.39763,0 -0.78518,-0.0299 -1.16628,-0.0889 -1.18022,0.77023 -2.59473,1.22182 -4.10974,1.22182 -1.46736,0 -2.84111,-0.41758 -3.99867,-1.14407 -0.14723,0.009 -0.2948,0.0111 -0.4443,0.0111 -4.15426,0 -7.53082,-3.36545 -7.53082,-7.51972 0,-1.09423 0.24468,-2.12975 0.66644,-3.06564 -0.80373,-1.19301 -1.27735,-2.61757 -1.27735,-4.16528 0,-4.15426 3.37657,-7.51972 7.53082,-7.51972 0.50712,0 0.9993,0.0494 1.47729,0.14439 1.19854,-0.80635 2.63447,-1.27735 4.1875,-1.27735 z"
           inkscape:connector-curvature="0"
           style="fill:#3b2906" />
        <path
           sketch:type="MSShapeGroup"
           id="path4677"
           d="m 108.65063,85.48126 c 1.45114,0 2.80543,0.42148 3.95424,1.13296 h 0.1 c 4.02444,0 7.31826,3.15658 7.51972,7.13096 0.007,0.1282 0,0.25894 0,0.38876 0,1.08895 -0.23968,2.12051 -0.65534,3.05454 0.8016,1.19592 1.26625,2.62738 1.26625,4.17638 0,0.12982 0.007,0.26056 0,0.38876 -0.20146,3.97438 -3.49528,7.13096 -7.51972,7.13096 -0.39763,0 -0.78518,-0.0298 -1.16628,-0.0889 -1.18022,0.77023 -2.59473,1.22182 -4.10974,1.22182 -1.46736,0 -2.84111,-0.41758 -3.99867,-1.14406 -0.14723,0.009 -0.2948,0.0111 -0.4443,0.0111 -4.15426,0 -7.53083,-3.36546 -7.53083,-7.51972 0,-1.09424 0.24469,-2.12976 0.66645,-3.06565 -0.80373,-1.19301 -1.27735,-2.61757 -1.27735,-4.16528 0,-4.15426 3.37657,-7.51972 7.53082,-7.51972 0.50712,0 0.9993,0.0494 1.47729,0.1444 1.19854,-0.80636 2.63447,-1.27736 4.18749,-1.27736 z"
           inkscape:connector-curvature="0"
           style="fill:#734b02;stroke:#000000;stroke-width:1.06631005" />
        <path
           sketch:type="MSShapeGroup"
           id="path4679"
           d="m 110.55032,87.8824 c 1.45113,0 2.80542,0.42148 3.95424,1.13296 h 0.1 c 4.02444,0 7.31826,3.15658 7.51972,7.13096 0.007,0.1282 0,0.25894 0,0.38876 0,1.08895 -0.23968,2.12051 -0.65534,3.05453 0.8016,1.19593 1.26625,2.62739 1.26625,4.17639 0,0.12982 0.007,0.26056 0,0.38876 -0.20146,3.97438 -3.49528,7.13096 -7.51972,7.13096 -0.39763,0 -0.78518,-0.0299 -1.16628,-0.0889 -1.18022,0.77023 -2.59473,1.22182 -4.10974,1.22182 -1.46736,0 -2.84111,-0.41758 -3.99867,-1.14407 -0.14723,0.009 -0.2948,0.0111 -0.4443,0.0111 -4.15426,0 -7.53082,-3.36545 -7.53082,-7.51972 0,-1.09423 0.24468,-2.12975 0.66644,-3.06564 -0.80373,-1.19301 -1.27735,-2.61757 -1.27735,-4.16528 0,-4.15426 3.37657,-7.51972 7.53082,-7.51972 0.50712,0 0.9993,0.0494 1.47729,0.14439 1.19854,-0.80635 2.63447,-1.27735 4.1875,-1.27735 z"
           inkscape:connector-curvature="0"
           style="fill:#3b2906;fill-opacity:0.50700001" />
        <path
           sketch:type="MSShapeGroup"
           id="path4681"
           d="m 273.04093,76.14619 c 1.46299,0 2.82833,0.26434 3.98651,0.71057 h 0.10082 c 4.05728,0 7.37798,1.97974 7.58108,4.47239 0.007,0.0804 0,0.1624 0,0.24382 0,0.68297 -0.24163,1.32994 -0.66068,1.91574 0.80814,0.75006 1.27658,1.64784 1.27658,2.61934 0,0.0814 0.007,0.16342 0,0.24382 -0.20311,2.49265 -3.5238,4.47239 -7.58109,4.47239 -0.40087,0 -0.79158,-0.0187 -1.17579,-0.0557 -1.18985,0.48307 -2.61591,0.7663 -4.14328,0.7663 -1.47933,0 -2.86429,-0.2619 -4.0313,-0.71753 -0.14843,0.006 -0.29721,0.007 -0.44793,0.007 -4.18816,0 -7.59228,-2.11075 -7.59228,-4.71621 0,-0.68629 0.24669,-1.33574 0.67189,-1.92272 -0.81029,-0.74823 -1.28778,-1.64168 -1.28778,-2.61237 0,-2.60547 3.40413,-4.71622 7.59228,-4.71622 0.51126,0 1.00745,0.031 1.48934,0.0906 1.20832,-0.50573 2.65597,-0.80113 4.22167,-0.80113 z"
           inkscape:connector-curvature="0"
           style="fill:#734b02;stroke:#000000;stroke-width:0.84789997" />
        <path
           sketch:type="MSShapeGroup"
           id="path4683"
           d="m 274.95613,77.65213 c 1.46297,0 2.82831,0.26435 3.98651,0.71057 h 0.10081 c 4.05728,0 7.37798,1.97974 7.58109,4.47239 0.007,0.0804 0,0.1624 0,0.24382 0,0.68297 -0.24164,1.32994 -0.66069,1.91574 0.80814,0.75006 1.27658,1.64785 1.27658,2.61935 0,0.0814 0.007,0.16342 0,0.24382 -0.2031,2.49265 -3.5238,4.47239 -7.58108,4.47239 -0.40088,0 -0.79159,-0.0187 -1.1758,-0.0558 -1.18985,0.48308 -2.6159,0.7663 -4.14328,0.7663 -1.47933,0 -2.86429,-0.26189 -4.0313,-0.71753 -0.14843,0.006 -0.2972,0.007 -0.44792,0.007 -4.18817,0 -7.59228,-2.11074 -7.59228,-4.71621 0,-0.68628 0.24668,-1.33574 0.67188,-1.92271 -0.81029,-0.74823 -1.28777,-1.64169 -1.28777,-2.61238 0,-2.60546 3.40412,-4.71621 7.59227,-4.71621 0.51126,0 1.00745,0.031 1.48935,0.0906 1.20832,-0.50573 2.65596,-0.80113 4.22167,-0.80113 z"
           inkscape:connector-curvature="0"
           style="fill:#3b2906;fill-opacity:0.50700001" />
        <path
           sketch:type="MSShapeGroup"
           id="path4685"
           d="m 81.75258,45.99512 c 1.46299,0 2.82833,0.26434 3.98651,0.71057 h 0.10082 c 4.05728,0 7.37798,1.97974 7.58108,4.47239 0.007,0.0804 0,0.1624 0,0.24382 0,0.68297 -0.24163,1.32994 -0.66068,1.91574 0.80814,0.75006 1.27658,1.64784 1.27658,2.61934 0,0.0814 0.007,0.16342 0,0.24382 -0.20311,2.49265 -3.5238,4.47239 -7.58109,4.47239 -0.40087,0 -0.79158,-0.0187 -1.17579,-0.0557 -1.18985,0.48307 -2.61591,0.7663 -4.14328,0.7663 -1.47933,0 -2.86429,-0.2619 -4.0313,-0.71753 -0.14843,0.006 -0.29721,0.007 -0.44793,0.007 -4.18816,0 -7.59228,-2.11075 -7.59228,-4.71621 0,-0.68629 0.24669,-1.33574 0.67189,-1.92272 -0.81029,-0.74823 -1.28778,-1.64168 -1.28778,-2.61237 0,-2.60547 3.40413,-4.71622 7.59228,-4.71622 0.51126,0 1.00745,0.031 1.48934,0.0906 1.20832,-0.50573 2.65597,-0.80113 4.22167,-0.80113 z"
           inkscape:connector-curvature="0"
           style="fill:#734b02;stroke:#000000;stroke-width:0.84789997" />
        <path
           sketch:type="MSShapeGroup"
           id="path4687"
           d="m 83.66778,47.50106 c 1.46297,0 2.82831,0.26435 3.98651,0.71057 h 0.10081 c 4.05728,0 7.37798,1.97974 7.58109,4.47239 0.007,0.0804 0,0.1624 0,0.24382 0,0.68297 -0.24164,1.32994 -0.66069,1.91574 0.80814,0.75006 1.27658,1.64785 1.27658,2.61935 0,0.0814 0.007,0.16342 0,0.24382 -0.2031,2.49265 -3.5238,4.47239 -7.58108,4.47239 -0.40088,0 -0.79159,-0.0187 -1.1758,-0.0558 -1.18985,0.48308 -2.6159,0.7663 -4.14328,0.7663 -1.47933,0 -2.86429,-0.26189 -4.0313,-0.71753 -0.14843,0.006 -0.2972,0.007 -0.44792,0.007 -4.18817,0 -7.59228,-2.11074 -7.59228,-4.71621 0,-0.68628 0.24668,-1.33574 0.67188,-1.92271 -0.81029,-0.74823 -1.28777,-1.64169 -1.28777,-2.61238 0,-2.60546 3.40412,-4.71621 7.59227,-4.71621 0.51126,0 1.00745,0.031 1.48935,0.0906 1.20832,-0.50573 2.65596,-0.80113 4.22167,-0.80113 z"
           inkscape:connector-curvature="0"
           style="fill:#3b2906;fill-opacity:0.50700001" />
        <path
           sketch:type="MSShapeGroup"
           id="path4689"
           d="m 206.58419,62.51323 c 2.25409,0 4.35772,0.40728 6.14218,1.09481 h 0.15534 c 6.25122,0 11.36756,3.05027 11.68048,6.89079 0.0108,0.12388 0,0.25022 0,0.37567 0,1.05228 -0.37229,2.04909 -1.01794,2.95166 1.24514,1.15565 1.96688,2.53889 1.96688,4.03572 0,0.12542 0.0108,0.25179 0,0.37567 -0.31294,3.84053 -5.42926,6.8908 -11.6805,6.8908 -0.61763,0 -1.21962,-0.0288 -1.81159,-0.0858 -1.83325,0.74428 -4.03044,1.18067 -6.38372,1.18067 -2.27927,0 -4.41313,-0.40352 -6.21119,-1.10553 -0.22869,0.009 -0.45793,0.0108 -0.69015,0.0108 -6.45287,0 -11.69774,-3.25212 -11.69774,-7.26646 0,-1.05739 0.38009,-2.05803 1.03521,-2.96241 -1.24845,-1.15283 -1.98413,-2.52941 -1.98413,-4.02499 0,-4.01435 5.24488,-7.26648 11.69774,-7.26648 0.78772,0 1.55222,0.0478 2.29469,0.1396 1.8617,-0.7792 4.09216,-1.23434 6.5045,-1.23434 z"
           inkscape:connector-curvature="0"
           style="fill:#734b02;stroke:#000000;stroke-width:1.30639994" />
        <path
           sketch:type="MSShapeGroup"
           id="path4691"
           d="m 209.53501,64.8335 c 2.25406,0 4.3577,0.40729 6.14219,1.0948 h 0.15532 c 6.25122,0 11.36756,3.05027 11.6805,6.8908 0.0108,0.12387 0,0.25022 0,0.37566 0,1.05228 -0.37231,2.0491 -1.01795,2.95166 1.24513,1.15565 1.96688,2.53891 1.96688,4.03574 0,0.12542 0.0108,0.25179 0,0.37567 -0.31293,3.84053 -5.42927,6.8908 -11.68049,6.8908 -0.61765,0 -1.21963,-0.0288 -1.8116,-0.086 -1.83325,0.7443 -4.03043,1.18067 -6.38373,1.18067 -2.27926,0 -4.41313,-0.4035 -6.21119,-1.10553 -0.22869,0.009 -0.45791,0.0108 -0.69013,0.0108 -6.45288,0 -11.69774,-3.25211 -11.69774,-7.26646 0,-1.05738 0.38007,-2.05803 1.03519,-2.9624 -1.24844,-1.15283 -1.98412,-2.52942 -1.98412,-4.025 0,-4.01434 5.24487,-7.26646 11.69773,-7.26646 0.78772,0 1.55222,0.0478 2.2947,0.13959 1.86171,-0.7792 4.09215,-1.23434 6.50451,-1.23434 z"
           inkscape:connector-curvature="0"
           style="fill:#3b2906;fill-opacity:0.50700001" />
      </g>
    </g>
  </g>
</svg>
